<mxfile host="app.diagrams.net" agent="Mozilla/5.0 (Windows NT 10.0; Win64; x64) AppleWebKit/537.36 (KHTML, like Gecko) Chrome/136.0.0.0 Safari/537.36" version="26.3.0">
  <diagram name="Page-1" id="stjHyOJ4tT9vqszEQZi3">
    <mxGraphModel dx="925" dy="531" grid="1" gridSize="10" guides="1" tooltips="1" connect="1" arrows="1" fold="1" page="1" pageScale="1" pageWidth="827" pageHeight="1169" math="0" shadow="0">
      <root>
        <mxCell id="0" />
        <mxCell id="1" parent="0" />
        <mxCell id="LPwq_dugz1kxxd8D_Qa9-7" value="" style="html=1;verticalLabelPosition=bottom;align=center;labelBackgroundColor=#ffffff;verticalAlign=top;strokeWidth=2;strokeColor=#0080F0;shadow=0;dashed=0;shape=mxgraph.ios7.icons.cloud;" vertex="1" parent="1">
          <mxGeometry x="171.5" y="80" width="340" height="230" as="geometry" />
        </mxCell>
        <mxCell id="LPwq_dugz1kxxd8D_Qa9-1" value="SuccessFactors" style="image;image=img/lib/sap/SAP_Logo.svg;editableCssRules=.*;verticalLabelPosition=middle;labelBackgroundColor=none;verticalAlign=middle;imageAspect=0;labelPosition=right;align=left;fontSize=16;fontStyle=1;spacingLeft=0;fontColor=#002A86;spacing=0;" vertex="1" parent="1">
          <mxGeometry x="244.37" y="150" width="37" height="19" as="geometry" />
        </mxCell>
        <mxCell id="LPwq_dugz1kxxd8D_Qa9-6" value="" style="shape=image;editableCssRules=.*;verticalLabelPosition=bottom;labelBackgroundColor=default;verticalAlign=top;aspect=fixed;imageAspect=0;image=data:image/svg+xml,PHN2ZyB4bWxucz0iaHR0cDovL3d3dy53My5vcmcvMjAwMC9zdmciIHZpZXdCb3g9Ii0wLjUgLTAuNSAyOCAyOCIgaGVpZ2h0PSIyOCIgd2lkdGg9IjI4Ij4mI3hhOwkgIDxzdHlsZSB0eXBlPSJ0ZXh0L2NzcyI+LnN0MCB7IHN0b3AtY29sb3I6IHJnYigzNSwgMTQ5LCAyNTUpOyB9IC5zdDEgeyBzdG9wLWNvbG9yOiByZ2IoMCwgODcsIDIxMCk7IH0gPC9zdHlsZT4mI3hhOwk8ZGVmcz4mI3hhOwkJPGxpbmVhckdyYWRpZW50IGdyYWRpZW50VW5pdHM9InVzZXJTcGFjZU9uVXNlIiB5Mj0iMjUuMzA5IiB4Mj0iMjMuNDU0IiB5MT0iMy40NzQiIHgxPSIyLjAzOSIgaWQ9IkEiPiYjeGE7CQkJPHN0b3AgY2xhc3M9InN0MCIvPiYjeGE7CQkJPHN0b3AgY2xhc3M9InN0MSIgb2Zmc2V0PSIxIi8+JiN4YTsJCTwvbGluZWFyR3JhZGllbnQ+JiN4YTsJPC9kZWZzPiYjeGE7CTxwYXRoIGZpbGw9InVybCgjQSkiIGQ9Ik0tLjUgMTMuNDcyYzAtMS45My4zNzEtMy43MyAxLjExMy01LjQuNzQyLTEuNzA3IDEuNzQ0LTMuMTkyIDMuMDA2LTQuNDUzUzYuMzY1IDEuMzU2IDguMDczLjYxMyAxMS41OTgtLjUgMTMuNTI4LS41czMuNzMuMzcxIDUuNCAxLjExM2MxLjcwNy43NDIgMy4xOTIgMS43NDQgNC40NTMgMy4wMDZzMi4yNjQgMi43NDYgMy4wMDYgNC40NTNjLjc0MiAxLjY3IDEuMTEzIDMuNDcgMS4xMTMgNS40cy0uMzcxIDMuNzQ4LTEuMTEzIDUuNDU1LTEuNzQ0IDMuMTkyLTMuMDA2IDQuNDUzYTE0LjI4IDE0LjI4IDAgMCAxLTQuNDUzIDMuMDA2Yy0xLjY3Ljc0Mi0zLjQ3IDEuMTEzLTUuNCAxLjExM3MtMy43NDgtLjM3MS01LjQ1NS0xLjExM2ExNC4yOCAxNC4yOCAwIDAgMS00LjQ1My0zLjAwNiAxNC4yOCAxNC4yOCAwIDAgMS0zLjAwNi00LjQ1M0MtLjEyOSAxNy4yMi0uNSAxNS40MDItLjUgMTMuNDcyem0xNi44MTEgNC4yMzFhNi42NSA2LjY1IDAgMCAxIDMuMjg0LjgzNWMxLjAwMi41MiAxLjgxOCAxLjI0MyAyLjQ0OSAyLjE3MWExMC4xNCAxMC4xNCAwIDAgMCAxLjk0OC0zLjI4NGMuNDgyLTEuMjI1LjcyNC0yLjU0Mi43MjQtMy45NTIgMC0xLjU1OS0uMjk3LTMuMDA2LS44OTEtNC4zNDItLjU5NC0xLjM3My0xLjM5Mi0yLjU2MS0yLjM5NC0zLjU2M3MtMi4xOS0xLjgtMy41NjMtMi4zOTRjLTEuMzM2LS41OTQtMi43ODMtLjg5MS00LjM0Mi0uODkxcy0zLjAyNC4yOTctNC4zOTguODkxYy0xLjMzNi41OTQtMi41MjQgMS4zOTItMy41NjMgMi4zOTRBMTEuMzUgMTEuMzUgMCAwIDAgMy4xNzQgOS4xM2MtLjU5NCAxLjMzNi0uODkxIDIuNzgzLS44OTEgNC4zNDIgMCAxLjQxLjIyMyAyLjcyOC42NjggMy45NTIuNDgyIDEuMjI1IDEuMTUgMi4zMTkgMi4wMDQgMy4yODQuNjMxLS45MjggMS40NDctMS42NTEgMi40NDktMi4xNzFhNi42NSA2LjY1IDAgMCAxIDMuMjg0LS44MzV6bTIuNzgzLTcuMDE0YTUuNjggNS42OCAwIDAgMS0uNDQ1IDIuMjI3IDUuODcgNS44NyAwIDAgMS0xLjIyNSAxLjc4MWMtLjQ4Mi40ODItMS4wNTguODcyLTEuNzI2IDEuMTY5cy0xLjM5Mi40NDUtMi4xNzEuNDQ1YTUuNjggNS42OCAwIDAgMS0yLjIyNy0uNDQ1IDYuNDQgNi40NCAwIDAgMS0xLjc4MS0xLjE2OSA2LjQ0IDYuNDQgMCAwIDEtMS4xNjktMS43ODEgNS42OCA1LjY4IDAgMCAxLS40NDUtMi4yMjdjMC0uNzc5LjE0OC0xLjUwMy40NDUtMi4xNzFBNi40NCA2LjQ0IDAgMCAxIDkuNTIgNi43MzdhNS44NyA1Ljg3IDAgMCAxIDEuNzgxLTEuMjI1IDUuNjggNS42OCAwIDAgMSAyLjIyNy0uNDQ1Yy43NzkgMCAxLjUwMy4xNDggMi4xNzEuNDQ1czEuMjQzLjcwNSAxLjcyNiAxLjIyNWE1Ljg3IDUuODcgMCAwIDEgMS4yMjUgMS43ODFjLjI5Ny42NjguNDQ1IDEuMzkyLjQ0NSAyLjE3MXptLTIuNzgzIDBjMC0uNzc5LS4yNzgtMS40MjktLjgzNS0xLjk0OC0uNTU3LS41NTctMS4yMDYtLjgzNS0xLjk0OC0uODM1YTIuNzMgMi43MyAwIDAgMC0yLjAwNC44MzVjLS41NTcuNTItLjgzNSAxLjE2OS0uODM1IDEuOTQ4YTIuNzMgMi43MyAwIDAgMCAuODM1IDIuMDA0Yy41NTcuNTIgMS4yMjUuNzc5IDIuMDA0Ljc3OS43NDIgMCAxLjM5Mi0uMjYgMS45NDgtLjc3OWEyLjczIDIuNzMgMCAwIDAgLjgzNS0yLjAwNHpNNy4wNzEgMjIuNjU3Yy44OTEuNjMxIDEuODc0IDEuMTMyIDIuOTUgMS41MDMgMS4xMTMuMzcxIDIuMjgyLjU1NyAzLjUwNy41NTcgMS4xODggMCAyLjMxOS0uMTg2IDMuMzk2LS41NTcgMS4xMTMtLjM3MSAyLjExNS0uODcyIDMuMDA2LTEuNTAzLS4zNzEtLjY2OC0uODkxLTEuMTg4LTEuNTU5LTEuNTU5LS42MzEtLjQwOC0xLjMxNy0uNjEyLTIuMDYtLjYxMmgtNS42MjJjLS43NDIgMC0xLjQ0Ny4yMDQtMi4xMTUuNjEyLS42MzEuMzcxLTEuMTMyLjg5MS0xLjUwMyAxLjU1OXoiLz4mI3hhOzwvc3ZnPg==;" vertex="1" parent="1">
          <mxGeometry x="10" y="215.5" width="44.5" height="44.5" as="geometry" />
        </mxCell>
        <mxCell id="LPwq_dugz1kxxd8D_Qa9-8" value="" style="shape=mxgraph.sap.icon;labelPosition=center;verticalLabelPosition=bottom;align=center;verticalAlign=top;strokeWidth=1;strokeColor=#D5DADD;fillColor=#EDEFF0;gradientColor=#FCFCFC;gradientDirection=west;aspect=fixed;SAPIcon=SAP_Analytics_Cloud" vertex="1" parent="1">
          <mxGeometry x="244.37" y="180" width="30" height="30" as="geometry" />
        </mxCell>
        <mxCell id="LPwq_dugz1kxxd8D_Qa9-10" value="&lt;font color=&quot;#1d2d3e&quot; size=&quot;1&quot; face=&quot;arial&quot;&gt;&lt;b style=&quot;font-size: 14px;&quot;&gt;SAP Analytics Cloud&lt;/b&gt;&lt;/font&gt;" style="text;html=1;align=left;verticalAlign=middle;resizable=0;points=[];autosize=1;strokeColor=none;fillColor=none;fontSize=12;fontColor=default;fontFamily=Helvetica;" vertex="1" parent="1">
          <mxGeometry x="281.37" y="180" width="160" height="30" as="geometry" />
        </mxCell>
        <mxCell id="LPwq_dugz1kxxd8D_Qa9-11" value="Ariba" style="image;image=img/lib/sap/SAP_Logo.svg;editableCssRules=.*;verticalLabelPosition=middle;labelBackgroundColor=none;verticalAlign=middle;imageAspect=0;labelPosition=right;align=left;fontSize=16;fontStyle=1;spacingLeft=0;fontColor=#002A86;spacing=0;" vertex="1" parent="1">
          <mxGeometry x="337.37" y="110" width="37" height="19" as="geometry" />
        </mxCell>
        <mxCell id="LPwq_dugz1kxxd8D_Qa9-71" value="" style="edgeStyle=orthogonalEdgeStyle;rounded=0;orthogonalLoop=1;jettySize=auto;html=1;" edge="1" parent="1" source="LPwq_dugz1kxxd8D_Qa9-14" target="LPwq_dugz1kxxd8D_Qa9-29">
          <mxGeometry relative="1" as="geometry" />
        </mxCell>
        <mxCell id="LPwq_dugz1kxxd8D_Qa9-14" value="" style="shape=mxgraph.sap.icon;labelPosition=center;verticalLabelPosition=bottom;align=center;verticalAlign=top;strokeWidth=1;strokeColor=#D5DADD;fillColor=#EDEFF0;gradientColor=#FCFCFC;gradientDirection=west;aspect=fixed;SAPIcon=Identity_Authentication" vertex="1" parent="1">
          <mxGeometry x="667" y="95.25" width="50" height="50" as="geometry" />
        </mxCell>
        <mxCell id="LPwq_dugz1kxxd8D_Qa9-60" style="edgeStyle=orthogonalEdgeStyle;rounded=0;orthogonalLoop=1;jettySize=auto;html=1;" edge="1" parent="1">
          <mxGeometry relative="1" as="geometry">
            <mxPoint x="718" y="340" as="targetPoint" />
            <mxPoint x="718.0588235294117" y="390" as="sourcePoint" />
          </mxGeometry>
        </mxCell>
        <mxCell id="LPwq_dugz1kxxd8D_Qa9-15" value="" style="verticalLabelPosition=bottom;sketch=0;html=1;fillColor=#A153A0;strokeColor=#ffffff;verticalAlign=top;align=center;points=[[0,0.5,0],[0.125,0.25,0],[0.25,0,0],[0.5,0,0],[0.75,0,0],[0.875,0.25,0],[1,0.5,0],[0.875,0.75,0],[0.75,1,0],[0.5,1,0],[0.125,0.75,0]];pointerEvents=1;shape=mxgraph.cisco_safe.compositeIcon;bgIcon=mxgraph.cisco_safe.design.blank_device;resIcon=mxgraph.cisco_safe.design.ms_active_directory;" vertex="1" parent="1">
          <mxGeometry x="660" y="395" width="50" height="45" as="geometry" />
        </mxCell>
        <mxCell id="LPwq_dugz1kxxd8D_Qa9-17" value="" style="shape=mxgraph.sap.icon;labelPosition=center;verticalLabelPosition=bottom;align=center;verticalAlign=top;strokeWidth=1;strokeColor=#D5DADD;fillColor=#EDEFF0;gradientColor=#FCFCFC;gradientDirection=west;aspect=fixed;SAPIcon=SAP_Datasphere" vertex="1" parent="1">
          <mxGeometry x="194.37" y="210" width="35.5" height="35.5" as="geometry" />
        </mxCell>
        <mxCell id="LPwq_dugz1kxxd8D_Qa9-19" value="&lt;font color=&quot;#1d2d3e&quot; size=&quot;1&quot; face=&quot;arial&quot;&gt;&lt;b style=&quot;font-size: 14px;&quot;&gt;SAP Datasphere&lt;/b&gt;&lt;/font&gt;" style="text;html=1;align=left;verticalAlign=middle;resizable=0;points=[];autosize=1;strokeColor=none;fillColor=none;fontSize=12;fontColor=default;fontFamily=Helvetica;" vertex="1" parent="1">
          <mxGeometry x="236.12" y="215.5" width="130" height="30" as="geometry" />
        </mxCell>
        <mxCell id="LPwq_dugz1kxxd8D_Qa9-20" value="Concur" style="image;image=img/lib/sap/SAP_Logo.svg;editableCssRules=.*;verticalLabelPosition=middle;labelBackgroundColor=none;verticalAlign=middle;imageAspect=0;labelPosition=right;align=left;fontSize=16;fontStyle=1;spacingLeft=0;fontColor=#002A86;spacing=0;" vertex="1" parent="1">
          <mxGeometry x="354.37" y="221" width="37" height="19" as="geometry" />
        </mxCell>
        <mxCell id="LPwq_dugz1kxxd8D_Qa9-22" value="" style="shape=image;verticalLabelPosition=bottom;labelBackgroundColor=default;verticalAlign=top;aspect=fixed;imageAspect=0;image=data:image/png,iVBORw0KGgoAAAANSUhEUgAAAU0AAADVCAYAAADTsqJeAAAAAXNSR0IArs4c6QAAAARnQU1BAACxjwv8YQUAAAAJcEhZcwAADsMAAA7DAcdvqGQAAEocSURBVHhe7Z0HnJ1llf9RFmQRpURAOkgTxLWgqKu7qOBiW9dV111XXdQ/AtLSQ0hCQgu9l1CFAKGFEIQECJ3QAyFlep9Mb5k+yUxmJpz/+Z5732SI79z73snt9/l9PucTmNve8pzfe9pzzg7i4ODg4BAYjjQdHBwcYoAjTQcHB4cY4EjTwcHBIQY40nRwcHCIAY40HRwcHGKAI00HBweHGOBI08HBwSEGONJ0SHsMbf5QBoY+lL6BzdK1cVjW9w1LS8+QNHUPSWPXkDR0DUpd56DUqtSr8P/N+lpr75C9t3PDsHT1D0uPfn7Dps0yqN/n4DBWONJ0SBtsHPxQOpUUm5UQa9oHZW19vyzJ65a/vtUuV73QKtOfbJTTHqyT/7yzSk6+sVL+5dpy+cZVZfKVuSVyzMXFctTsYjlW//36laVy4nXlcsotlfKLO6vld/fVyOkP1cmEhQ0y6+kmmfd6myzN75H8hn77HX6P3904uFkcnzpEgyNNh5RgWMmpVy2/FrUGS1sGlMS6jRjPeqRefnRrpRx7SbEcfEGhfHZagYybnC+7T8yT3SbkyT+eu1Z2OmeN7HjWGvn4X9bIx/6yWnY4U+WMEaL//3F9fcez19h7P3HOWvvcJ8fnyaf0O/aanGffe4h+/xeUZE+5uVLOeLhOLl/WIgtWdMiKdRvMWu3u32xWroPDSDjSdEga+tQ1xqVeVbtR7nu7XSY+3iAn3VQhh88qkn2nQoz5sut5a+UflPCMCFU+psQIOUKSOykJ7qwkuIsSICT4j/pe3o98Ehkf+pf/5zXew3s/oZ/hc3z+H1T4LiPbMMHy/3yG3x83JV8OnF5o1uqfF9TJXW+ul5V6vLj9hAYchzo40nRIKHrUWqvtGJTni3pk1pIm+f6NFWpBFqi1l2+WHxYh5PWxMHlBbJ84N0RiyZJd9Pcg1ZD1upVMd9HXOE4s3m9dXSZnP1ov97/baW59e58j0FyFI02HuAO3u7Z9UP62ptvc3n+6tMTcYVxjiMlznyHIkNv8USsxVWLWKqLHwv9DpEbqZvGutr9BooeqZfzLu6rlr2otl7cOWDzUIXfgSNMhLsDqau0ZktfK+uT8Jxvla1eUyj5TC8xNNtJRwTXGqhtJVJkiuPmQvGeJEivda1KeHH1Rsbnxf1vbbRl8klkO2Q1Hmg7bBUp4qtcPyp1vtMsPbqqQ/acXmtu9g5IL8cidlWggnXSwJOMhnjX6CSVRYq2eG7/31HyLg854qknerOizUieH7IQjTYcxARd8dd1GmbO0Wb48t1T2VKsLksSi3Eld2pFJmmwX3HjOm/OHUA+8oFB+d2+NxXHbNzjyzDY40nSICZThvFO9wUqDPjcLq3KtxfuI/eHCevHAZImXJQ9lykMx0lQQtmdFE4LA+oRI9zu/QP7r7mp5Sl13ivEdsgOONB0CATf8vXUb5JzH6uXQmUVWxgM5kNiBqLYlkbGKub9hVx7yg3y2lgmFftPkjFVbstwhKy90LFvew2v2HpXwZ3gfLjXfx/FbEsr7vTiHDzzrk9/aR133n95WJQtXdVpdqkNmw5GmQ0SwfXFNfb+Mf7xBDoMslWggoC2xym3IYqwyMtHyMSM8rNfVRmzUT5K1hnwOOL/QitIPn1koR88pli/NLZETriyTf7mu3MqZvnNtuXz18lL5/EXFcrhawofNKLSSIWov91fLjzrMT0/Ms9+zTH74t4zg9P8hU7/jG4twbbheEDm/9Rn9bXYpPb6qSzqc256xcKTpMCrIBl/9Qot8/uJi21UDWUJsfgQRVDzLjuQJVphnGeLek0CC1CDGIy4slu9eXyGnLaiVi59pljteXy+LlGxeK++TwsYBqWrbJOvaN1kNKMfJDp7G7vA+dP3buvZBe09ZyybbjklI4cXiXpn/TodctLRZ/vRArZx0U6WSa4kcNL1A9p1aYORMVtysUiVvSNRCDuFj9jufoGKJI/veNbK3/tYf9fdX1myUwc3hi+2QMXCk6fB3wAp67IMuOVFJi62L8SBLhKJ1z7qDJKnbpCzpc7OK5OSbKmTa4gaZ/267vFXZJ1XrN1kckF04lPGwnTEexTxs39yyx11JtqZjkyW0iDteuaxFfnXXOiPS/aYVyKf1+CxGyfHqNcDl9juvoAL5QsIQJ4SMpczWUYjfIXPgSNNhCz5UQlld1y9/uL9W9laLD7KE5MaaWIEk+KwRpX4XBIQ1d5C6yt+7oUJm/K1RnljdJSXNA7a9kt1Dwym0vGjY0dY7JNVK2MsKe+RStXB/Nq9KjrywyFxrCM+uiZLeLmp5b08clIcQ3/Upta5PurFCnlzTZefvkP5wpOlgoDTmnrfa5YuXlpgVhDXkuaZ+Sh9NIAWvDAeL8pAZhfLj2yrlmhdbZYW6ynQW2rApvQvB+9UiXd83JBWtmywO+acHa+UotQ73nKRufNgC5YHAdfK7BpHEu658nutEeIDdU/mN/fbwckhfONJ0kLyGjXLq/TWWbBmrK+6RgNdsgxgoRPDta8vlyhdazILF3YaIMhWELUrVKqaJx8/vqLIE06cmqLut50xWfqwPGZJPECfX/atXlBpBu51F6QtHmjkMyogeXdklX5lbaq4zcUaUOFbFJ8PtWUyfPC9PjlB39jS1yp7O67bEzCYCiVkEQghYoCRyaCf37WvKrX0dxEn2f6yWJxUJWK/7Ty+wZBXXziH94EgzR4F7zG4eGmmgqLEmOT7iXipRYHHh2s9Z2iQF6mLmShMLLGfaxs1/p91ik8Q+efgQliBjHssDiPd6cVP++1d3VVuSyiG94EgzB7G2fqP8+u51VuKzw5lbi7z9FHk0sayyKjcZ5uPVpbz6xVYr76GuMxfBWZONf2Rlp/z41iqrCjDrHbf9HP9rGEl4GEG+eAELP+iyXqQO6QFHmjkEOhE9V9hjjSVQZhTTT2FHE4jV2+mCRYRlee1LrVYelKtkuS088ly8ptvinlieO+i1Jtbrd00jie26Ui9gv/MLZfaSZgsJOKQejjRzBBvVUsGFJN7oueNBrUvPbYRoSVawjXLak41SqG64K84eHW1Kcg+/32G7lHYdj9sdanbsd439hOuOF4BFv9uEtZa9Z6aRQ2rhSDMH0N0/LFc+32LbCCHMWGNtVl6jCv+ZKQVy6v218k7VButy5BAdWJ7Ufc5RS/GwmYUht1sfPtSvBr0HvJe48U7q5lN8X9qyKfTlDimBI80sR3P3oExe1CB7TArt7PFTytEE6xJlxU0kbvnAOx02DtchdpAweqOiT/77nnWWaTcS1IeR33UfTXg/cc4f3VIpa+r6w9/skGw40sxitPUOy1mP1JnCQZhBEz68BzeSz9Bcl85Gxc0DbiZOHMA9Yf879ZgkirA8Y9lxBXGSmcflf7uyL/ytDsmEI80sRWvvkEx4vF52HU9z4OAWprftERfy+MtDmVvniscfNBH57X018qkJoQ0FsYwB8Zqn0M3pxaIet4MoyXCkmYXAhZ78RINtX8QqwcL0U75tBcJEGUk6/M9f11lpkkPi0No3bMXx7CxiPEgsyTkjzjNWWwu8JXnd4W90SAYcaWYZOjYMyYy/NVn9ZCwWpme9HHhBgcx9rsUsVYfEg1Itdk5946oys/ApTQrirkOuVgh/xio57pISeaW0N/yNDomGI80sAqMoZi9tkj0mhhINQSzMkfHLL11WIk+u7Xb7nlMAdlH9ztz1UGmX373aVrh3nsVJI+Z31znPIBlwpJkl6B0YNguRphsUn/sp2bbixS+R795AYmFD+NscUgHa0s16ukmsIF7vIZZkEHc91E2fe1gheUq+DomFI80sAIXrtFzzlC1oDBOyROHYUlnUPBD+NodUoqd/WK57uXVLTwC/++YnllU/a7X85LYqqWhzdZyJhCPNDMfQZpHbl6+3EQoQpp9CbSuQKu77buPz5KxH61w3nTTDxqEPrbfpoTMLY9qMwKgOYqIk8RgB4pAYONLMcCzN77GdJihXEHcOl5yMOmMsJi1qMJfQIf0wuPlD66t59EXFW7yHIMS5o1qbO5+zVs58uM5GhTjEH440Mxir6jbK164sC+6S63sobdl9Yp6c/2SjdWt3SG88X9RjEze5xyR9ghDnx85cI7tPypMbX2mVYbcjIe5wpJmhYBjXv8+rMjc7SH2fZ2FSu0myoWujK1jPFLxc2itfuASLc1WgciQEz+OwWYWyrNiVIsUbjjQzED0Dm2X8wgZzx4PuX6aMhf6ZUxc35EyD4GwCtZxeh6ogYRhrK6fWKfPgi1pcki+ecKSZYcDZosUbmfLQeAl/pRkpJAdIJpzxcL3tfXbIPOBlL3ivUw5g95Ded7/7vK3sdHaoWfT/W1ArHe5BGTc40swwEMek+S+Kg8XhpywjBUvUy6jWd7mkTyaDWUvzlrfJvlNDD8wgcWy6ItHh6oZXWm12vMP2w5FmmoImDATxWedeQwa2Nv7X3etC9ZXn+CvJSKEJBHHMH91aKeWtrnYvG7BhYLNc8XyL7KlEyBRMv/s+UiBWCt8Pm1kky4pcfDMecKSZAmAx9PRvlra+YauRZFzEqrp+eb2iz7KlT67pkoff75R73243V/zRlZ36t26ZsrjRsqK4XH4K4gkuO1Yo1uiX55bKezVup082ge2yk59otKRQtLWAGHGesdp2DK1z9ZvbDUeaSQBNGUi+kPFeXt4rt6mLNU0J8H/vrbFA/VEXFssh0wvlgPMLZD+VfacVWMxynAr/0tMSIfONhRnELYMwD7qgUBYrATtkH1hLP7utytz0aNUTvIZ3QiLwsudasm6kcrLhSDNBoAcluzJeLum1SY2/uXedxSIZOcH+cAgQ95mYE1aAiSoAJUS41GS7Rwp/C5opp8CZONa1LzoFyWasqN4gX6QUSddOtAcpr7O2yMC/Xe0ae2wPHGnGEZvUomQS4atlvTLjqSZr97WfWo0Uk3slIB/TBb5jmACxEGJpPhtE+F620/15Qa2bXpjl4HH4wIpO80KYeBmthhMvhaQg3ZRcNn3scKQZBxCfLGzqlyuWtZi7jTXJvm6zGpUoRyZuPjk+2K6OsQhxTH7vm0rWJa4BR06AeehTn2i0e88681sXnrDu8FgI+TzwXqeRrkPscKS5HejWpzUu0sRFDXLU7OKPECVP9CAlQfESrAysDeKhT6x2ccxcgu0Ou63Kwjh4NH7rwxNrI6dr9JtXl0m564Y0JjjSHAOwLJeX98mp99fIQTMKw2UdIaKEvBJpTY4m3m+z42fjJmdD5BrerOiTI9kxpOswWnyTjDsP9JlPN9mUTIfY4EgzBgxuFslr6DfL8hAlS+KHLNKgCZpEScgtXyMnXl8u69qd9ZCLIOF36bPN9sCO5qYjrNvDZhXJO+opOcQGR5oBUacu0NUvtMqxFxeri7PGXHBcoXhblFgJCAkivp9/vb/5vR8hTsUuEVdelNvATT/xunJzv6OFhnjQs47Pfazeehk4BIcjzSigr+FLJb1yyi2VFrM0yzLAk9xPIFgsAf6b2BJuEiVHEDADsvhuxMqLlDDJrnvvsdesNCn0PuJX9lr4X/YXu85FDo+t7Axts9R1se3621ZYR59Ta/O9GleCFAscaUZAa8+QXPlCizX5JcHjuT1jsS6xGIk7UnIE+UGI1GqOm1Ig+08rkEMvKJBj1Ir9+pVl8q/qZv/41ir5xZ3r5Kfzqmx+D4Ozjr24RA6fWSQHTi+Qvafky6cn5smOuvCPvahYPqh1C99BrPHwnx6stYcu1mSktcrreDCMe+5zsc3AcKQ5CiChX95ZbcS2wxnRs5LbirdYsQJ5ovMvY3X3nQo5lsiv7q62vpZ3v9kuLxb1SnHzgKxrH5T6zkHbWtnUPWR7zVuUuBu7B61QvqZ9k1S2bZJ3qjbIQys65MIlTfLHB2rtO6gRdXAAq3TtHjOnOKq1yRplbR45u1hWN7iBbEHhSHMb4I4vye+Wr15eusW6tIz4iMUWTSDYj+tnP37WaiNdtjP+UC1HAvXLCnukWsmPrukbNn045s4zOOJ8HsvC7fpxGIlBXQ809SCchHfjt0YR1rRVXZybJzOearT15BAdjjRHgELhO99otzgPsUNcaL/F5icsQArYIVrcHgqI2RE0Z2mzvKuWITuFNpJ+d3BIAuhq9eXLSkI7hSIkhay+V61NZhHlN7oNEUHgSDOM9X3DMlvdXcjO28sb1LrcRcmVZA5kSXH5z++olkWruszV3uhiRQ4pAE1iLnuOEqSQtRlpLRM62vW8PLnkmWYZcF5LVDjSVOAqT3q8wWKOPHUp1whKmJbcUetyn6n58t/3rJOlBT0Wh3RwSDWKmwbkuIuZLRTdY2LdE5Kqca3joiLnSbO1VwlzUYPFHiE/vwXlJ8QtWWjEjb5/Q7ksXt0lHW66o0MaAWtz9pKt1qbfOkYwEFj7zM5fqB7SGMPsOYOcJk2zMJUwd5vA4LGAY3BVWIDUR9Jm6/JlLZbVdnBIRxQ09ltJGqQYaX2HOm6tlT/cXyvtrgNSROQsadL9evqTjTFZmCw6YpcEzxmfS+kPmUoHh3QFyUdm3O86fm3ETRleQojGM256ZWTkJGlCdLe+tl4+MznfFkoQC5OnMO8ldskipJbSwSET8H7NRjkkPMUyUqwe72mPifky7/X1bghbBOQkaS5e3S0Hz9BFdEYwC9Pil/rez6ub8+B7nbJhkysdcsgcdPQNyy/uqLZdQruE+7r6ie1aO3ut/GxetbS5+PyoyDnSxKX+EvVrSoJBsuQQJh2EyCy+UNTjguQOGYdhfcbf9Wa77DUpz6xJv3WO0BcBvcCgWOGG8Y2KnCJNOhX98JZKc1OidYFBKFanOJhu7G8r2To4ZCpKWwbkmDlF1gHJb60jGBDsgKP0bu6yZldjPApyhjRptjrzqSYLeAfpN7izuiokiBh7uqbeNcNwyGzQAeu0B+vkE6xt9Z781jyCMYF+/ODmCmly9ca+yBnSXJLXLQdML1ArM7SX3G/BeELcB2uUkQAE0R0cMh2Elei3SiKTCpBIYSlcdBoUF7o5U77ICdKsWr9JvnNt+ZY4pt9C8YRgOITJuN3XyvvC3+DgkPmgU9bXLi+N6KIj3vC1h1Z2uhi+D7KeNInLUI/p9bP0WySeWK2aEiujLJ5WyzQTMayrnJnr7X3D0tg1FGop1zFonZVqwq3n+Dt77XkfSQKH3EDvps1y3mP1lvCJ5KKTZd91fJ5MeqJB14hjzW2R9aT5TlWfNRGGDKO55XRIZ0b5tS+2ylAGkQklUPTfpAfo/Hc6bGDW7++rke/fUGFNjY+7pESOnF0kx6n1TDPjk26ssNnX9PO87+0O67/Y3D3oSqmyHFiND7/fKftMKYiYRffi/t+7oVyaXVzz75DVpNm9cbNNjNz57NDoCL8F4gkdinjCso2sc0P6kwcF+hTYv1TcI1MWN8g/X1suB19QYG7Vp5T4d9FzYuETajDRh4b9q64Zf8fypvP7uMn5+rlC+fY1ZTJVLQtGezQqAbudTtmJgoYBOYwaZV0LfnqAeKVHh+r71rrmxH+HrCVNVP6ptd3y2WkFocB3eDaPn9j2SH3ykvgpSvPgN+40Hd7Z0cQQrf2m5dsWOSwHFjp76Gn1RX0p57Xtbif+H8LkIcL7eD+f4/xJDuyn1+u711fIrcvbzKV37nt2AcvxZPVAvAfnyLXhCevg46ozPFDvX9FpIR+Hrcha0qR70U/mVeniCE2N9FscnkAY+9Dh5YP0nuZIPPL6l1vla1eUWhiB4/b6eHIePBhY8JEyo9uKvV8/h0vG92CBeGGKr11Zar/HlMNUgC49dI5i7AfhB46DEcXEZonV0tiZ111z5+Agjj3tyUZrUhNpLzprgXVx3sJ66eh3u4NGIitJk+fikryeLeUVfovCE1x3LC5m7XSm6TRHkllP5XXLyTdVhHt+rpEd1UIMUqA/FvlHtUDMclXh906+scISY8kodqaRSoMS4hsVfXLDy21y+kN18qu71tm5syvryDlFNmDuhKvKbKPCaQtqrdPUMwU9UrV+UO/hsN1/B39gND6+qkv2nRIuPRrFA8MjYVzL99QqrXd9Fj6CrCRNFOc3f62Rnc4JbYP0WxQmumCwrI6eUywr03SaI+7U7KXNsr/VmI5tZtFYxPt+Ly762fMLrLN9m1rw8QbNIYjPPrG6y0YRf2VuqRxwfqE1j+AYCCVsic8SmyWcMOJa7D4p3zrmf/6iEktwPfJ+p1mlLi7rD4b4HXkhI10ih614na5HVa714UeQlaT5plopjLmNtihsDIC+jqUylIYeSOX6TfIHtYBpIsu5RAszJEr4XX6fhst/uL9GKtrip0S16mrf8cZ623nFWGKvTpbfgxQhTH6fv4+sfhgZm+V9kKhdI/0b3auoGrhteZsltRw+CiYLnHJTZeihE8Fb4T4cNL1Q3ktTgyJVyDrS7FH3bvzCelsMXqzPT1BAtklSxF7Wmn7JnxXVG+QHurA5B2KMfueQbEHJOJ5Tbq6Q99Zt3158YpHz3223EqjdJ+SFiO8vW0cl8zALak1bXDYskGYotLBaLdU8cy8feq9TLWRHnh6YYHrmQ3WmI5GqSrxY/+PqATibfSuyjjSZC04LN56SfgsBQbmwMndTZWWsLvvS0wnPF/XIl9m5oecQifhTIRwPhPQVPb5lepyxgpja6rqN8qcHa8WG2Ok5hrrmx+88ub8Wk4M89fvHqftOXJR6VIdQjJyha7tPzI+44YMH2Z567UgGujHRW5FVpIlCYlWMI8itCuO3EBCUCsU/9uJiKW5Orzq0FWrBEdNjhDBWF8fqdw6pFOv+dHpoEFesFiexS4ruuf5Glvp9kUIo2yNcO5JltPbDq6Aa4NmCHpttn8vg9B94t0P2UT2JVOTOA5LQ0ITHG6RrwFUoeMgq0uxS1/z/5tcY2aDYfgsBsW1i+i/zgdKp/RUxzB/cHGpd57mp6So7nx2Kef2buuqxxDh7VPnY1sr9sZiyz3cnQnBDdzhzlRw+q0jufLM953c/LS/rkwPPDyUX/a4XwgMH4mQkdVufC294yCrSLG3ZJEfNUdf8jChdXHSh7KcL5tXS3vAnUw+y5JQ97aRkRBlUOlqY2woKhZCsikWpGrqGrFwICzBRZVPbCtcTl521wdRF3FNqFnMVFW0DcrhtL17le708QVfwKOo6HWl6yBrSZNfCgys6ZK/JuByjk6bVIKqFw24aCqbTAVi7lBV9MpwQ8TvudBSuMW4vxz1Hj78/hg37L5f0yiGqtIRRRmbFEykcLyRNaAHX9K432nN2twsbJb55VZlVHYyWQSdswkOG3g3FbtjaFmQNaZIRPPvR+tDUPbV+/BYBAimx2+WK51tkIA1c8w/1EChcx/JlgfodczoLhIc1sr8efyydodjtM2tJk31HMt10T7jWn7uwSJ4tjD2ZlQ1oU8/m13dVbynp8rtGHmkeNL1AVri+sluQNaRJPd63ryk3yyfak/NAas/WpcciYPcLu13Y5UOcL9nkEQ8x602P/+QbK831Dor8xn45YnaRka7f9yZKtlicuha+fmVpTmbV2QBy1sN19tAjHOR7nVRfsETZaPCq6y27BVlDmnkNA9YHM5oCQqrfuKrU9i2nGnizN7zcarPX06UWcywCCXH8dE3ifDapFRkEJGPIzPKQi+QdJEqwslgPlCNRN5pLYLvq5EUNRoyjXXuPNGni8kyOWuR+yArSHFYfd8F7HbYTJFIJhRXy6kI465F66dVFk2rQfOL4K0L1mKNZx5ki5qYrAXE+NNQIinerN1hsM9nWJgLZ87vEwekzmUvhzb6BzTLrqSZ7YNN7YbTrw0OFLapW4J6b4d+/Q1aQJgtg6uJGfTKOvgAQrCFqOO99u8OINpWgWJj2blhnkRJXmSQ8sGjwcZueV9CcUKdaeL+9r9Z28kTanZIoYSsmyShrTNGZO40p6AzF9mHi+8T5/dafeRC6NtmEMH+F6kzuFht8BFlBmuv7huRXd4eC2pFKWLAqiGemw7A0Mvdk8HmSJ6vsJtGCtUwZEefF/uYgYKPJ/e92WO/GVD08eJhCHvOWByf7TAeJuJtebVMre/SHtkeaWOK3v9HuGqCEkRWk2dg1KN+6uswsnUjlKwT+2WKJW5xq0HEdtycVbmmiBCXjfOiIRAf4oCqW39Avh1wQGklCHM3vuxMpXmiBdnOp6h2abECAd73ZLnsHIM09JuXJ9a+0SX/AWHW2IytIk2mTR0RpdYUbhhvy/RsrUt75hgQIIypYlKlIgCRSaGy7m94DwiXs/gkCCvu/p/eF+5OK2C73gYQH1u4jK3OjUzmn+PB7zAuKbOET7sIKp0eDmyEVQlaQJgPFDlC3OxJpmut+3hprFNGe4kwpQ/j/+ZqQZbxrlrjmnkB6O+p5cX5BH04o4/l0Ex+fl7KHiG291WP/3fyalK+PpEBJ05oR06g7CmmSLJq9tMm552FkLGnSmYhas+r2Qbn6hRbrxhJpNw03nyQFjXT7UvzEhOQPvCB6v89MFVz0g/T8gtY/kpN7bGWXtSGL1Ggl0cL9OHp2sVSr55LtgP4WftBppBnJ0vQqTjA2mJ/V1T+cdl3Bko2MIk1qyyhnWVbYI3OXtVh93TEXlVigmrjUaK4dCwJC3cPaXLWl9Kbj+t33TmoTH4kWLGjOj/MMmnFlvEW0BhKJFlz0facUWCekbKcF3HO2HUdzzxF0C90hH4DOkXWnfSED/tDJXEPakybBZ2aULNWFzJCnL88tlc+qRUKpDk9BrANLAEVwc1kQLAzI9Y7X21PaG5AmEcwlj1Qfl+nCedGrlLnqQeNgBY0DcohZ35EbSCRSeLASv4MUst2aYsTIPW9FTgSNFMIm6Bq7hz49Md908EuXlcq5j9XL0vxu09FcSRSlLWmyQ4PSoAuearLpi2SaLcup1gAWAfuVvVKdaDfcI03qzegjmMp6s/V9w/L7+TV27One/m2s4sUHOU/qMIOAZN7hs6J33Umk8BBmjZ2+oE660nTIXryA4UCJ1biApOkJ6xbdQwfRRa4XBMp2VHQVnc323VVpR5rtSirPq/tNm7RDZxbajeIGIWNNErAgCHbvw86GVV2hgE6K0EQT3hRmipMhKNKOeq/YUx+0XpNSH7wIU8QUXRd+Fyv5R7dWSWvA485UUKfJllcvFxCUNLcVdNIjUP6fjkjoLu47upyNSBvSJGO5NL9H/uP2Kvmskpt1Bx9BlNuTMPkIaTLbPIWkybxuhn5RF5itpIlwvU9Q66MxYAMPOrr/6/UU+6f2YbLluNOgN0EisWFws1zyTLOFuba3y5Snm+bCq87iaaDDP1NdXpLXnXWWZ8pJc+OmD+Wtyj459f4au9CUq/DkGq3zyliEBYELwhbK+9hCmcI6vBq1qL5wSahRst+xZoNwvVGeL1xSYg+JIKDb03fCO6RSRZpjOe5MBVnw8Y+FWinGU9cQvg8dJtfw2Wn58ocHauStqj7ZoLqeDUgpaZa1bpIpixvNDTczXxXG2qPFuQzHI809J+fJza+2Be7CkwhQznIk7dCymTT1/nF+zMyuDUg+kNTxV6gFrsqWMtIcw3FnKtrUdf7NPessjpuI2DrXchfVZTwHdBsdZ8NDuep8plNnSkiTBhuLVnXJt68ps8AyirK9TzuIkRvlES6Kx4LghpnbcHpIGS9ZmtqdDViax6olg3IS+9v2PLJFOL/jLi2xrGoQ1LRvkqPDo0r8vi9ZYset9yfocWcqLByilj2Jt384W/UvTJ7eA8vTJfRq22sUq6DbXFd0nU0PdExKda309iDppMkQromPN5grDlnGo+yGDjlbMnp6cxBLtOhrlL4Qt9ntvDzZZ2q+XLikKaWzYSymeVVqLapkCOcXimkGI5+Cxq37z/2+L1kS63FnKki8HT+3RHYmnqnkiK7g5XlxSYwM9GlH9dCsqiAOaxVd57vR/YmLGqQshoF86YSkkuZrZX3y3esr7InGxYPs/C5uJPGefCF3PvQE478hxn2nFsjBFxRYTOqUWyrlzwvqbHvexc80y5XPt8hty9dbEXUq3XMSIyeFs+fsh9/2/LJBUDDO76SbKmxfeRCwYQFlSuWOICun0bX0I107rT3ZXTZDcubaF1tl0qJGGb+wwXTld/fVyI9vq5IvXlZiDzDuB12QIFQjUkjU1m1ID8dihaLzpvvKAf+qXPBSafDGLumCpJAmpvj8dzvk82H3a6zWJRea2CTfwY3EciQ++O+3V8lFSozM2slr6DdrrrV3yGrtCAWQbKLEgto0ajRTeZNoY8fihDB5gvudZ6YL94l4FnWaQTKntGO7/fX1tvkglR3suR+76L8QCDOnshlsXe1XvUA/evo32/l29A2b3qA/jCKhbGie3pfTF9RaxQezgvaalG/XCeIL1UqP7X6Z1al6fPRFxXKfckMmuesJJ02KuXGJ2a6FyR/rReZpZjERvUncLBTr2IuL5S+P1MniNV1S2TZgtYCZctG9HUFYxljIfuec6YJCsOOJ8wySMe3Rh9uZD4Xn1aTwQYIVtfvEfLkiB3YEBQVNOtigAJFSuI639p93Vlu3/U9NWGsPObwDHpKxWp5wAcSJ8TNrSbO0Zshs9YSSJsHmMx+uMwWC9FCKWC6sueBmyq+VA/Up9+t71skDKzosLhq07Vi6ge1rlD2ZVaVW81hcnHQXSk04v3tt73l08qEh8wlqyVA94fd9yRKUn51nzxW4eTijAa8AQ4imM4S8vntDhTVa8XIKeBl+19ZPWPue6w9HnKEPzroMiCUnjDQJNJ96f63FP6z2bsTFiiRcSJ5aEApkybA03KXl5X3Spq5DCkss4wYW3EFRWtllsqAEnN8Htf3hM46MNyr7bAQwn0vV9TDlxV2cU6zeS3YngeIFrPHG7kGhEoZNKeQUMHSsF4Rez6AGAe+FI+AKOGOdckc6IyGkWamW4H+Ha8BwefwulJ9w8Shu56KjRH9RK/Xtqg0Wc8kmYFlResFoCL/rkMlCEggF+NY15eZpRMNGVbw56prRS3N7d6Zsj7BWsZJ+P7826/dOJwIYNOzoY+wMPR5YA7HoPsL7uQ//o9xRkcbt+eJOmsQ+fq0XjrjWjmcFc7dQFKxK3CPM9B/eUinPqIuUrcH4DQMfypQnGu28d4rBnckEwdLAWpy6uCFQaRfE+o2rQq45SRi/70y0cB/4fUIKj9hUShfPHCtIJBFC++bVZWELcmu23e/abytwBtwB+aarxRlX0mzrHZY/P1RnBIjV4HdRthUuLBeJi4trdOMrbWaJZTteKu61edK4pH7XJRMFsuR8KFVhRlA0wE3z3wnFd7n/ft+ZDGENctzUZ+bKjKBEg7wDCeCDZxTatY0l6Ql37KwcQliuRUk43RA30uxWq2Kazb2h1VRwN4v3kkXDunyzsi+lvS6TCR4MNKgg+zjWso20E7UoPq6Wwol6XkG6BDV0DYX2m+tnUlnon4vTKJMBdt49V9gj/3JNWdjzDL7O4QVCNszS6kyzpG9cSHNQz+maF1ttap117/G5CCMFQsVk5wm095QCmbyoIeee8DwcbnmtzUqPsiWL7pXs3KrnRZVAJPA65SuQVSrP30tUfv+GCmkK2JHJITaUNg/Inx+sk92VHywME8BdN+tf3wunXK3cMpBGxlRcSHNJfrcchBl++qqohIlgVZCpPGRmkdz5RnvWJXqCguYdx19RaqUaftcpk8Tu6Zlr7HxoKBwNjFH++lWhc0eJ/L4z0YLi8vt7Ts63yYzZUJmRrmBTB4aVVUnQaDrAPTfiVE7BxX9KOSZdsN2kyZ5hAvlYjdHcTBYp8U7e+/mLimThB10p7aKeagwNi1z3Uqslv2LNNKaTcF85fvb5X/9ya9SphbjA1Ph5GXO/70yGhJKPq23uTUeW7wBKBzAO469vt8sRs4rCfBHd4rQCeH0vHJOnXJMO2C7SpMj1t/fWmMIQuPU76ZHiWZh06H6hqMcSAbkOwhIn3VhprsguGZpJ90ItJ99YYXHKaHi2sMd2lHxcP+P3fckQTxmPv7xMVtWlhzLmAob0gcpOvmMvKtbrr55pAIsTboFj2H5MS7tUY8ykOajHzoZ/xuJGs5J4mlCwDmF+8dISeaU0emY1l/B0XrfsZ25L5rnpIbd8tbldT62N7kLRGyCoZ5IoCbl9q+VzavE8k+92/6QCXPdj1NtkzQexOOEY4v/XqGe2KcW8OWbSZB/q0XNCJx3taWGLVN931JxiK4B1+Cgo8KY8A/eW4n6/a5iuQuZ5t/Fr7fg3RNivzSvEMX9xZ7V9BtfY7/sSLR5hfmZyvtz5xnoXx0wRuOyE52hOHMRY8LzUo5RzVlRvCH1JijAm0uzcOCy/V1OZeFS0vaYhS2SNHHRBYbhwOPwlDh8BNa5/uF+v6dmhpsl+1zLdZKezQ8XsjDMgVBMJdNOZ8bfG8I6v1GTLzSVXxWPHyqXPNuvDKocD6mkAb4zwAeGWgNGML7gGzoF72lMYg46ZNInxewXJQeoxrQZuUp5ci1mdwj6WmQBGAfzgpgpzXVNliQUR7jnb3TjOf7u5Uo97IHwGo4N7j2V36MyQd8Lnk7XPnN9B4Tjez80qlDvfbM/ozuHZBGo55z7bIrurlxUtKci6g1z3YtYXzWBSRCcxk2Z1+6B84+pgMSksESyn//dgrVmnDtGB6/GVy0vNhUzXLZbWqk+P7ytzS2XFuuCuEj1NSQD+8zXlFqOycqMEnyPz10k4kSVnBhHhIeftpBfW9w7J7+5dt2UnkN999MTzFtimmarGKjGRplciQ6lItOQPysBC/fa15VLSHN0ScdgKdlHYDHC9funmqnM8hFsgzGVFY0vo5TcOyP/+tUbG2fZJRiqEu+LEyfLEIuH7jJixTCblyy/vqrbuUg7pCUoXvxUwQch9/aRyUKqSQjGRJu4jVlC0Ymwzo/U9B0wvlGeUABxiBxbcv91SYZY6YRC/65xsYbFiZZ6iLnksFqYf2vuG5aH3Om30x55KapAnawZS3p5id46PmCnEvsfEPDnx+gp5cEWHWjPO00l3PLmmW/YnvqnrINoDlPfARWUtye+GFJg0ca3mLms2hseMjhTLZOETk5u0qEE2ujjmmMFDinnwZKdxSYKUZsRb+D2vDnO3CWst6VPeEh/PgZVBXefdb7XLt9Vl31stT+ZwQ6D8npG0eiwjEwQok3cN+Duvsx5RIi9WigXLeAa2czJV0tUDZwbo8j9hYb38o97DSB4W9984SLnosmUtSeeYwKRJj8wvXVZiT/BIWS7LluuiP16fAs4t33609Q3J7CXN4Sa9oaYH0bKM8RJ+h9/bQS1dfp+yIo4n3iDGSEtBLI3xqjQnqJuGl4Kl6LnZnDtECjHav1wLVSyO8dMT8+WzUwvk8xcVy+/uq5VH3u+QmvbBnN5tlqkobByQrxjPRC5lNJ7RNQAnlSfZ2gxEmmx7u+MNmiuEMuZ+J4HwBMBK2EOf9He/2S6b3aKNC8gwUjiOK2ujQ/Qah7ojbbW64iVYcluJCusyz36XoXXJmBff3b/ZCJTJpVe/0GrtweiA9fUrS23K6FEXFtu/X7+i1MIEp+nrl6u1Qf9VHuy4/c6yzFzwAGXI3p7h5h6R1jdcRMOX25WbklkMEYg0GWdKaQmKFCneBPtzoiffVCEtLoYUd9QrmbC3m6YYLBaSHF4cMNJTOYhwX/kevo9WbVh5/A6/B4mlAoxT6Ny42Qbn0ay4rmNQalQ4Hv6fv9Ooms0BDtkD2iaedEOFkWKkdc2ahZN4eLZ0J49vApEmozxpLIvlESlAy0kS1H/g3Y7wJx3iDeod16nrSbzuxOvKbfsl94Rrz/3hX5JH1CWOXHDbxgKtUFjf533Onurj8+w+n3hdhX0/3Ypcba1DssGKu+/tdhmnXML69NbwtsKaZu3uN63Q5uYnC1FJs1uf9IzLxWUjM+l38Aisj8vIdLpc6LyeahAyaeoelBdLem10BrWPB19QYEkQXHjqEwmWbxsLxDrl6czr9A0YN7nAdmsx04cRFS+V9Eiz3j8XD3RIJRq7huS7W5p0+3MOAifBTWc8Ui+dSWoxGZU0sWqIIRFH8ztoBAuGMo89JufJXW+12/Yoh+SBfqS47tQhMh6YeeO/n19jscivqYv9kVjglaXyff07r898qknu1Sc6n+PzmToW2SH7AIeQR9lrEjXhkWObcBNruypJxe4RSRPuIwGxd3i6nN8BI5wQVgwdjII0oHVIHNhaxhZBJipiMfrFAvl7u75Oicewy5o4pCmq2jbJcZfRQi4yacJNcNTiNd1JSQJGJE2mCZ63sMHM30hb+qyWTv8997F6U0QHh2hglRACwKLg4YwwAoSkDs09WHtk0kn0dCrB+wmhI6xj1hxJI2qJ+Q6+yyHzwX09R91uYvBwjB/3IHAT7zlHuaonCWn0iKRZ3zkkX2UfdAQrEyHjSgKB7X8ODkGARUC3dEIDi1d3yW3L2+SK51tk9tImueBvjbYx4qxH6+VPD9TK/82vsc42I4W/nb6gTsarokzX91/yTLNc9UKL3Pxam42QfV7X4tr6fhspQuiBTDvWN2VTjlMzB8/kd8v+U0O7hPy4xxNep9qjriPx+ZSIpLm8rG/LmNnRsuYwPMkFEgnsvnBwCAqsyWcLeuTMh+vkuEtLZG9VDkso6nryGjdYph/R/99WeI2MP7WkJLX2mJRv835o/ca6PWR6oRx5YZE1Pf7ZvGo5/aE6awn32AedsqZ+ozQomWKx5soE1EwED7xvXc1c/NHLj7wsOhswXi3tC38ycRiVNJnzQtkJRaaMZR0tpkBtH2N7z1tYb2N8HRIDsuW4oLijWExbahd1UdW0bzKLilnT7MIqaBywEQ40ivaTlWrd5akVVtQ0YFs1iR2t088zegMiadbvpkgc9xjLjLWQiFgR30n8tVHPg+Ni8BY1vuzuscz/6aGMPxlSyJQyKU9w1xDWH0L5FJ+hMgDSxfKwigFEPSXew3ql+zfxr4OnF8iX55aY1XrTq23yVmWfxX5dMiy9QJJz/GP1xj/ePdxWeA2OotwRTyPRkytHJU2ewH9+qFZ20QMaLZ4Aw7M4KVt56P0OtwNoO4HFg/UFYUFexUqAb1VusN049A+EVHBFT1tQKz+/o9rmprNd9ZiLi21Y1WEzCuXQC9TCuqBQDlY5SC0tX9HXeM+h+n4+c/jMIuvCTwME9oD/5LYqy67jIl/+XLPc+fp6eXxVl+3SyW/oN3JlrjmkOhDHwnLImYcB8+95CB95YbE9kAn028N5FG8nmoSs1RDJbtmnHiZkLFYMgwPOL7T96lMWN1rNX33XUFqNjc1VEPem4Qp9CayW2Of+Itxb8iqnK2eR5EwkRiVNGingckc1i/VJftjMQmvt5BAcJCsgHWpa2f7HBoIbXm6VCY83GCF+Ra0gSA1l3lddTVxO3E9cUauZ1UVCDRuKH7KoVm0V/hZEPvK50N8oHcNqoz0XjUKYO73X5DzZR62//fVYINtjLi6xHWK41Vcsa5EnVndJQcOAuVJYwdGmUQYBD488daFnL2mSL+jvYWlCdliZfmsxqKB0rFuPgPk+b8soFqkV+Ou5nqAEiiu/Vh8SJKMcUgce1DSPZo2O9uCEo+Aq6pUTHdcclTTZOH+IKi2Lye8gEQ6UGirq/thq6RAZuNc0XMWCXPBehxHkyTdXWNyNGBykiNJiVW0ltVDLNMgM5eY1CBNl5/pDoH73ZqzCd0KY/Aa/FXJ3Q8dgFlr4mPg7799djxlCZa1865oyazg9b/l6c7dx87e3QzojKViLWJ4kGz2rc9vjjodw7nz3xzhHPVf6xh6h94aHw6ulvZatd0g+8D5OuqnC1hz3yO/eIaxL1mF+fWIbBY1KmmTCPztVTWJdPH4HiHgmMTuGiD04/D3Yhog1+WZFn8x9rsVc38NVEcep5chTk049HjF6pOjtgPAsIrOOwrLtPUi0jPztkcfD4iXWaO6uPuHtHPBK9DXc3YMuKJB/ua5c3d0GWZrfbS799hBor36WqZ3fu6Fii3Xod7zxEM6Rfz1XnkQUSYY/PlBryVFneSYX3f3DcpY+uFh3cM6298sT7hWclegJo76kOay+411vttuWvEiLk0VFYJ3B/1hRDlvRpQ+R/MZ+ufGVVnNlaXXG9kaPJLHeQgSZOOVPthiRQmh6bnaO6oXw9311IZ9wVantVCJeyRC2sa4WElfEdAkdRNqXHE8x61MVkn8P1PuI5VmgLqNDcgC3XLWsxZrIwDl+9wiBq5gfdIdy12ACi3V9SZMC44ufabY+hZEOkkW7tyrEIys7XTsuBYXaWJXMoTlVrZLDZhXZQ8WIUpWOa4kV6Vluftc0G8SzSrE6jXB0neBW4+4eoBbbT+dVyvx3O2ze1Fg6FLX2DlmSik5PXNNILlu8xKyc8H3knI6/vMymq7pse+IB/5Fo5uEb6UFpRtyEfJnzbLP0JdCI8yVN3A/6GHIgkcxhFtCB0wusXCPXQeKMvbKUzOw7tcBcSKwt5t947nYuC9eARW3XRC1Q9hSzceKSZ1qkuKk/5soLrNVZarlivUd6sCdCIE3OY58pBTJtcaO06bE4JBZvVm6wqg84x++eIMZVus5OV08gkYMcfUmztXdYfnZ7lW1PiqTwZF0PnVEgZQFGuGYryBYvXtOlZFlp7gMWlcXB9Nplu0UZq3gWKGsKi8HbaUa95C2vtUmDWumxYH3fkPxvwCmG8RTOA+sW4iRxx64kR5yJRWnLQCiDHoE0WVdw1n8od7Uk8H74kiYNHeiQY9kqn4PzBNKkPpDC6lwEZVYkB7A4IAHilJCl37Vy8vcC8bDGGKfB3OtTbqm00qtYwlHEjencxMMq2fFhjt+rHaQSwrnqiQONgI6czcz8Vb73AoGrWE9wF63lEgVf0mSHBkXOEEFk0lwtx15cbDtScgmbP/xQXinrs5owrByvltVZlbGLd82s5lTXEyU+97zVHlOmfeEHnUIdqxFYOPOdTMH6YTcKpVYJzD/kNNYpxxx3abGtEb97gMBVcBbc1dCZZNJkD7k16ohgCpt7oq/TrzFV4xBSARJej63stCFenD/xLb/r4yR2YdcOSsE2RxpwBLXcCJH8/PZqfYCFvsPvuxMtIQOiRFbWuNnqiQAc8/WrQpwE9/jdA4TX4S62xCYKvqRZqwdopKALYTTryXNNvn0trJ47pEnXFeoscRN2OcdZl/EUriXWAusOy41StiDjNuxBFrY2CZH4fXeihcw6VRK/u68moUmIXAV9Fr5jOxRHJ03WD2uHbcVMI00U/ElTWfrI2WHSHMXd8SxNtpvliqW5pj4UP9vhdCXMLKqvTDcx4tRrTE0ke96DlLMRUvre9d6ukRRZm6oPzGxi95BDfAHHfPPqsoiWJlwFZx01p9gmTiQK/u65HuBxjLjQAxzV0lThAI/V99EVPNtBbeCv7q62mEmkMiwn8REeSqwvMuv0xYwG9rtf91Kr1W5CnH7fmWjxujGd82i99A244GY8AcdYF3ddE6PlWczSVM5iggSGX6LgS5qYwvQgxBT2OzhPOAEC99mePSe4T6eV0CxmR5jJEhqH7HTOWjmPiQCD0eObK9ZtkAOmF9i6TEVCCKWl3OxotXToL+AQP8AxR82JnD1H4Cy4iwbqiYIvaVJyxB7fICVHn5tZZH0csxnN3YNWtE68LFLdqpP4CwTIzqr310VPsOCis10z2sM+UQJpskZovHLnG+1x6fbkEAIcc8SFdDqKXnJEA6Gklxzhiv741ip70kfLVNGf8T19wmcr2IfPNtFxU0KF66OFK5zEX7jWVCfgqo9fWG/t4iKhh8YOj9TLrmplpiqEwu9yvHR7oietQ3wAxwTpugZn/fi2KmlOYNc1X9Jki9p/3b3OYjR0ePE7QARXlbZgiwjWhz+bbaAhMNeCm+EK15MvFjtXRfm8urwVrZE9Gh5wjCS2LHqK4pooLg9XEqSEuRy2H3ALHEOf00jhMbgKzvr1PeukLYEPLF/SpG8gwWy6ZkeqQ8QUpjTk+pdas3bOCm7BkaqwkZ5wThIrKMpnJudbs+NomfR3qvqso1Qq75fngbmazfiADvo3KMfspVwTKcnncdXZj9Vbl7FEwZc0+4c+lKteaJU9JgY4yPF5oS1kWdhPkwTQotXdNvArVXEyJ6H9xLjcEx6PPiKa7XYkJ4mF+n1XMoQKC9oqzn+nw+bQO2wf4JaJCxtsn380Iw7OuvLFVtkYoL53rPAlTX6OXS+43pHMYZIiuK001m3rzb74DTG0iYu4WVufYk5SI6xDOsM3RmnqQbkc9Xy8P1I8PpGCTlD6dNlzLWNqfefwUbT1DslPlWPQwUiJWO45nPUwrSrDn00EfEkTvFu9QQ48PzS+1+8AEauL0ic6hfA0h802BG2z7ySx4hUtMywuWs0mSUxmLKFgqdpSyW9zzIzocBMNth90UaNg3UrJfK63J3AVnPV2ZWIT06OSJmNdo7k5nAB1abD739Z0y4dBtm5kEOo6N8kx3nZSVQK/a+Ak8cK1t1EG0wpkaUF3+O74o2PjsJy2oM4ecqnKoIfmtIcSEomejJjtgFOeVG7Zl4YsugYikqbqKZxV0ZJYA25U0mzqGpLv3Ri5NpETwBXZbcJaawjLjOxsQn7DRrNuHGmmVlhnrEPmKt35xvqI9Y9YdlOfiB7/SqRA2MQ1T7y+3GqeHcYOOGW2csunlWPgmtFIE45ijVCj2ZCqaZQsvilPNBpZcLB+B4pwsLivP7ip0tzZbIINl2MCIk84R5opFdYgo0MuXNIcsV6TlnIXLVUlYxRGikiTtcKDlraJudQBLBGAU065udI4JlI80whVr/tE5axEZs7BqKTJw/zRlV3idY6JaBYTS5heKO9UZU+R+5Be93vCw+Winb+TxAuuNhbcHx+sjejyMoTr6hdabF47ipaK+2akefoqOXxmkVTnWK/ZeANOOThKCZnnicBVDytnJbpiYVTSBEVNA3LozNABR7K0aMTLrJaLljbLQAJT/ckE87ZpTbZ7uOzKkWZqhV02uNv/Pq8qokfD+rv51TbZc3Jeyh52nqV56IxCKXF70McMHoAXqWfxaeZARfAavOv9uVlFNiM/0YhImizOk2+sMFKMZBozzIgYDp3MsyWGw5ztC73BXSly85xsFUiThxc9ESLtK2aTxW3L04M0D76gQFbXuQL3sYLJrpSZwS1+19kTL0TIqOxk8E9E0qTGDOJg9GqkiX8sEuJ+FIEz0D8bbM1uCmpdjWbaCK45Hs8JV0Xu30qS6I7X18teaUCaTE983+0KGhPgkKfWdtvY3mg5BbiJ3YuzljTJhiTUxUYkTfBGRZ8ccH70bWmUWDAR8L/vWZcVnau7+oflnMfq7Waxn9XvnJ0kT7w96F+eWxqxVyKz5+9+M31Ik3pnh9gBh/xGuWSns0Pc4nedPWFdwFHLy5IzSjwqaTZT4E3pkbnokQ+eJ8L+5xfIK1nQuZqbdsbD0We/O0meoBxfjNL0GkvzrjQhTZKjb2dRcjSZeLmkVw6KsrkG8cI2hBET2Q5uJKKSJoH1a19qtWAsB+d34J5ALuwT/sMDNVHbeKU7GNZFe69dwufld75OkisQEZsNmEw4GhxpZj7gjj/eX2t6F0334CTKy65RjkrkfvORiEqagNk4h84sMtaPFFvgNaxNuszwpMhkbCHNcx1ppotARHRFj0aaFMA70sxcvKjcceD06PXRdp31PYfOKpLVtdFHosQLgUgTAvnNvTVGHp84x/8EPCH+QGD2P++ozuhid2dppp9ARKGhWZFJ8w5HmhmLVuWMXyp3wCHRYplwEbr5W+Wm9iTmUQKRJkbv0vxu2ZfdMboQ/U5gpBD/pLj4rjfaA00STEc40kw/caSZ3YArGBMyTrkjSBNpuAhOelq5KZk0E4g0QVvfkPzs9iqb7RztCWCZTj0hhrZn6oApR5rpJ440sxtspjleOQMyjDSbDDGPVrkITmpRbkomApMmT4HHV3XatkKLNficiCe8Rm3jzueukTMfrrOax0yDI830E0ea2Qs44izlCnTNWuv5XFdPeA0OGjc1XxYGnIsfTwQmTdDaOyw/vKVSF2OUHUJhwcTeS0l23vI264KeSXCkmX7iSDM7sVlZ73blCEaaBHHL4R446Ie3qpXZnfya8JhIE9DRfW+q9KNsbULMTdfFc+TsInktSYWn8YIjzfQTR5rZiVfLeuUo5QiuWTS3HIF7aM7xyMqu8DckFzGTJmNJfz+/xuqjopnRCLEHygLoc5dJ8U1HmuknjjSzD3AChelwRLRcCfcSziGz/n/KQalq8BwzaYIV1RtCXd31RP1ObluhNACS/eVd1RnTX9CRZvqJI83sAtth/0s5AW6IVsroCZyD5/puCq/rmEiThcnQqF3Pi75LyBMyXYwBOO3BuqjDsdIBjjTTTxxpZg/oYPRn5QL6VQTtIhbimjy5VLmHsb6pwphIE7D/93vXq1mti2OXgKTCSdONZOLjDdLWl95NPRxppp8EJc3bX1+fFq3hHGn6g8m1kxc2WPe0oEYXHMM1pTVgdXtqvdUxkyZYVtgjh9CkWE8mSAAXMeLURUUpUqRuNamGI830E0eamQ90/i+q+1yjoITpJZRpiP5sUU/4m1KH7SLNITUWaebBjOegFwAJdUxaK7+9r8aG+6cjHGmmnzjSzGyg67+/tyZUMhQDX8AtcMzVyjXpMLtxu0gTdGzYLKfOr7UTC5JN9yQU41wjP51XJStrN6Zd42JHmuknjjQzE+j2KtXxn6muo0tBY5jcOzgFbjn1/lpZr1yTDthu0gSFTQPyzavLbKHQYdvvAvgJF/DjZ4Uayy78oMs6xacLHGmmnzjSzDww52fhB53yVdVxdD0WXbJu/Xodv6XcUqAcky6IC2mCl0t75ZiLi+0kMb+DLlar49TP7D+9QC5+plkaktRINBocaaafONLMLKDL6PT+qttcj2h1mJ5wz+AQPgOnvJRmTc3jRprgidVdWxJDfhdjNOECUeXPgP9Tbqm0eeN9m1JrdTrSTD9xpJkZQHfRYXQZnUa30XG/azWacP3ok7loTWp2/URCXElzePOHcs9b7TbygpOOxeJEiF3Q4WR/fTJNfqLRup6kaiSwI830kyCkyTTKecshzdTNq89V0kRX0dlJixpNh9HlWBLEIy1MOOTut9tlOA17S8aVNEH/4Ga57qVW+czUEHH6XZxI4m275OJ9aW6pXPF8i5S1bjJlSCYcaaafONJMT3DN0VF09UtzS0xngmyL9BOuG1Ntr32pTfqUS9IRcSdNsGHTZrnh5TbZb4wWJ+8la4ZZv9uEtfJPl5XIZc8161OsP2mTLh1ppp840kwvoIvo5GXPNss/XVpiuop1GUsVDcJ7R1qY1yt3wCHpioSQJsDixFU/ZEa4e0mMxInwGXPZ9anF7oGjLyqW0xfU2TxkgswbExj3dKSZfhKUNG9b3uZimgkCOlevuocOoovMbLK4peoouhpL9QzC/fGy5Mwhu0s5A+5IZySMNMGwnjulREfPCTX34Ankd+Eiibfo6Wziue37qPn+javKZNqTDfI3vXnlrQM2W4Sn0+Y4Xe+e/s1y+kN1jjTTSDKNNA9S0ny/ZmP4yDIP6BI6hW6hY+gaOofuoYNmHapOopt23iOuQVCBE/gOOOJR5Qo4I92RUNIENB9mu+UJeqFxt2MJDPuJue16kRmnweLcZ0qBHDm7WP7j9iorb3jovU55s6JPKts2WVMA9ri3q3SpK0F3aMaDRpOBwQ/ts3+4v9a2cDnSTA8JQppkz+94PfUNO1ijWJqvlPaa5dTns87SQdAJdAMdQVdY9+gOOrRAdQmdQrfQMYjSHgh6XTm/sRhBIyWU+F1j3PCsckSmNCpPOGl6yGvol9/8dZ18akJeyGLcDiIyk17FCFQvOsrEvHXmH9OclBHCR+hNpij2J/Mq5dd3VxsBnvVIvTULmbQoskxb3CTnPlZviSgsTQbS+x2Hk+RKENIcUs27O8VzzxHW5p6T8uV/dM1PfaLRd52lWtAFdALdQEfQFXQG3UGH0CV0Ct3i2qNrnBe6tz3XFX3i++ACOGGNckMmIWmkCTDzL322WQ4gQaTE6Zn18RBuBNuzUBRuSOgm62+cHdqF4GXyeFJGE+KndGPi/UEbkThJvGQSaXqyZT1ts8bSRThGdAMdQVfQGU9/uH7oVDyNBi/MdgCbWZ5rkebezBvznVTSBP1DH8qTa7rkn68pD3Uv0Qs4ltIEP0FBTFgQ4b8RZCb2wqLgKRlUdlaJNajtJLGSiaQZ67pLhXCM6Ii33kfqULyun1dKiM5/S3X/CeUAuCATkXTS9FDRtklmPN0oB80olI/p08cb1pbqRe4kfSUTSTOXhWuPTtPRCB0/WHUdnUf3MxkpI01Agw6GKv38jmqL/+xwZsi95kL73QQnuS2ONDNHjCz1+qPT6DY6/orqejo15RkrUkqaHoh1UtP5nWvLZY9Job2qWyzPEa62k9wWR5rpK1xndDVElqEELbqMTqPb6Hi2IC1IE7DFtKFzUP76drt89/oKGTc5X3Y8KxTzJHjs4otOHGmmp6CbluDR+4POMr8cHb5XdRmdTsPt49uFtCFNDzT9aOwalAdXdMhPbquSA88v0IWP9RkqeSBBw41yFmjuiSPN1ItnUfLf6CI6iW6iowdOLzCdXaC6iw6jy9mItCNND1zu1t4hebuqT2YtabIC2H2n5uvNQhlCTzWUgsyfs0JzQxxppk7QMXSNaxrSPYyXPNNJdBMdRVfR2eykyq1IW9IcCbZyMZDp6bxuGb+wwQpw2W2BYngdVbiR7FLgZtoojRFlFCNrLc1CdZKRwn0+6qJgpDluipLmWfQs8P8uJyHZQoqI6go6g+6Eap7VigzrllcuhM6he+gguohOopvp3GAj3sgI0hwJtqNh+n9Qu1HuUuU4bUGtnHBlmRw2o9A6pIwL72Lg5vNk3JGbT8nDmaE6sR1Od5KxcupKOUQVNtIwPkiTvec28vWPK/2/x8lWUZ1AN9ARdMWr2USH0CV0Ct1Cx9A1HkjoHjqILuYiMo40RwIF6dwwLPWdg1LaukleKeuT+e90yBx1FehQ9Is7q+WUWyvlX68rl69dUWqt8w+fVWRyhJOMk4OnFch3ry2XOr3fo4E1wZ7p4/ReHzq9wPd7nIR0AEEn0A10BF1BZ9AddAhdQqfQLXQMXeP65joymjT9QJcU2lfRhGB935C09A5JU/eg1OuTsU7dCFw7J5kpWJgo71AEAweV7u0PhXOqfb7DyUcFnUA30BF0BZ1Bd9ChTOg4lApkHWk6ODg4JBKONB0cHBxigCNNBwcHhxjgSNPBwcEhBjjSdHBwcIgBjjQdHBwcYoAjTQcHB4fAEPn/orCejgzREqIAAAAASUVORK5CYII=;" vertex="1" parent="1">
          <mxGeometry x="195.12" y="260" width="49.25" height="31.5" as="geometry" />
        </mxCell>
        <mxCell id="LPwq_dugz1kxxd8D_Qa9-25" value="&lt;font color=&quot;#1d2d3e&quot; size=&quot;1&quot; face=&quot;arial&quot;&gt;&lt;b style=&quot;font-size: 14px;&quot;&gt;SAP Cloud For Customer&lt;/b&gt;&lt;/font&gt;" style="text;html=1;align=left;verticalAlign=middle;resizable=0;points=[];autosize=1;strokeColor=none;fillColor=none;fontSize=12;fontColor=default;fontFamily=Helvetica;" vertex="1" parent="1">
          <mxGeometry x="244.37" y="261.5" width="190" height="30" as="geometry" />
        </mxCell>
        <mxCell id="LPwq_dugz1kxxd8D_Qa9-26" value="&lt;font face=&quot;arial&quot; size=&quot;1&quot; color=&quot;#1d2d3e&quot;&gt;&lt;b style=&quot;font-size: 14px;&quot;&gt;Microsoft Active Directory&lt;/b&gt;&lt;/font&gt;" style="text;html=1;align=center;verticalAlign=middle;resizable=0;points=[];autosize=1;strokeColor=none;fillColor=none;fontSize=12;fontColor=default;fontFamily=Helvetica;" vertex="1" parent="1">
          <mxGeometry x="586" y="440" width="200" height="30" as="geometry" />
        </mxCell>
        <mxCell id="LPwq_dugz1kxxd8D_Qa9-69" value="" style="edgeStyle=orthogonalEdgeStyle;rounded=0;orthogonalLoop=1;jettySize=auto;html=1;" edge="1" parent="1" source="LPwq_dugz1kxxd8D_Qa9-27" target="LPwq_dugz1kxxd8D_Qa9-35">
          <mxGeometry relative="1" as="geometry" />
        </mxCell>
        <mxCell id="LPwq_dugz1kxxd8D_Qa9-27" value="" style="shape=mxgraph.sap.icon;labelPosition=center;verticalLabelPosition=bottom;align=center;verticalAlign=top;strokeWidth=1;strokeColor=#D5DADD;fillColor=#EDEFF0;gradientColor=#FCFCFC;gradientDirection=west;aspect=fixed;SAPIcon=Identity_Provisioning" vertex="1" parent="1">
          <mxGeometry x="665" y="205.25" width="50" height="50" as="geometry" />
        </mxCell>
        <mxCell id="LPwq_dugz1kxxd8D_Qa9-29" value="People Analytics" style="image;image=img/lib/sap/SAP_Logo.svg;editableCssRules=.*;verticalLabelPosition=middle;labelBackgroundColor=none;verticalAlign=middle;imageAspect=0;labelPosition=right;align=left;fontSize=16;fontStyle=1;spacingLeft=0;fontColor=#002A86;spacing=0;" vertex="1" parent="1">
          <mxGeometry x="673.5" y="20" width="37" height="19" as="geometry" />
        </mxCell>
        <mxCell id="LPwq_dugz1kxxd8D_Qa9-62" style="edgeStyle=orthogonalEdgeStyle;rounded=0;orthogonalLoop=1;jettySize=auto;html=1;" edge="1" parent="1">
          <mxGeometry relative="1" as="geometry">
            <mxPoint x="719" y="320" as="targetPoint" />
            <mxPoint x="719" y="280" as="sourcePoint" />
          </mxGeometry>
        </mxCell>
        <mxCell id="LPwq_dugz1kxxd8D_Qa9-34" value="&lt;font face=&quot;arial&quot; size=&quot;1&quot; color=&quot;#1d2d3e&quot;&gt;&lt;b style=&quot;font-size: 14px;&quot;&gt;Identity Authentication Service&lt;/b&gt;&lt;/font&gt;" style="text;html=1;align=center;verticalAlign=middle;resizable=0;points=[];autosize=1;strokeColor=none;fillColor=none;fontSize=12;fontColor=default;fontFamily=Helvetica;" vertex="1" parent="1">
          <mxGeometry x="580" y="250" width="230" height="30" as="geometry" />
        </mxCell>
        <mxCell id="LPwq_dugz1kxxd8D_Qa9-35" value="&lt;font face=&quot;arial&quot; size=&quot;1&quot; color=&quot;#1d2d3e&quot;&gt;&lt;b style=&quot;font-size: 14px;&quot;&gt;Identity Provisioning Service&lt;/b&gt;&lt;/font&gt;" style="text;html=1;align=center;verticalAlign=middle;resizable=0;points=[];autosize=1;strokeColor=none;fillColor=none;fontSize=12;fontColor=default;fontFamily=Helvetica;" vertex="1" parent="1">
          <mxGeometry x="580" y="140" width="220" height="30" as="geometry" />
        </mxCell>
        <mxCell id="LPwq_dugz1kxxd8D_Qa9-45" value="" style="endArrow=blockThin;html=1;strokeColor=#07838F;bendable=1;rounded=0;endFill=1;endSize=4;edgeStyle=entityRelationEdgeStyle;startArrow=blockThin;startFill=1;startSize=4;jumpStyle=none;jumpSize=0;targetPerimeterSpacing=15;strokeWidth=1.5;" edge="1" parent="1">
          <mxGeometry width="50" height="50" relative="1" as="geometry">
            <mxPoint x="520" y="229.91" as="sourcePoint" />
            <mxPoint x="640" y="229.91" as="targetPoint" />
            <Array as="points">
              <mxPoint x="628.63" y="219.91" />
              <mxPoint x="580" y="220" />
            </Array>
          </mxGeometry>
        </mxCell>
        <mxCell id="LPwq_dugz1kxxd8D_Qa9-46" value="&lt;font size=&quot;1&quot; color=&quot;#475f75&quot;&gt;&lt;b style=&quot;&quot;&gt;SAML&lt;/b&gt;&lt;/font&gt;" style="rounded=1;whiteSpace=wrap;html=1;arcSize=50;strokeColor=#475f75;fillColor=default;strokeWidth=1.5;" vertex="1" parent="1">
          <mxGeometry x="550" y="222.5" width="57" height="16" as="geometry" />
        </mxCell>
        <mxCell id="LPwq_dugz1kxxd8D_Qa9-49" value="&lt;font size=&quot;1&quot; color=&quot;#475f75&quot;&gt;&lt;b style=&quot;&quot;&gt;SAML&lt;/b&gt;&lt;/font&gt;" style="rounded=1;whiteSpace=wrap;html=1;arcSize=50;strokeColor=#475f75;fillColor=default;strokeWidth=1.5;rotation=0;" vertex="1" parent="1">
          <mxGeometry x="690" y="323" width="57" height="16" as="geometry" />
        </mxCell>
        <mxCell id="LPwq_dugz1kxxd8D_Qa9-61" style="edgeStyle=orthogonalEdgeStyle;rounded=0;orthogonalLoop=1;jettySize=auto;html=1;entryX=0.5;entryY=0;entryDx=0;entryDy=0;entryPerimeter=0;" edge="1" parent="1" source="LPwq_dugz1kxxd8D_Qa9-49">
          <mxGeometry relative="1" as="geometry">
            <mxPoint x="718" y="390" as="targetPoint" />
          </mxGeometry>
        </mxCell>
        <mxCell id="LPwq_dugz1kxxd8D_Qa9-67" style="edgeStyle=orthogonalEdgeStyle;rounded=0;orthogonalLoop=1;jettySize=auto;html=1;" edge="1" parent="1" source="LPwq_dugz1kxxd8D_Qa9-49">
          <mxGeometry relative="1" as="geometry">
            <mxPoint x="719" y="280" as="targetPoint" />
            <Array as="points">
              <mxPoint x="719" y="279" />
            </Array>
          </mxGeometry>
        </mxCell>
        <mxCell id="LPwq_dugz1kxxd8D_Qa9-72" value="&lt;font size=&quot;1&quot; color=&quot;#475f75&quot;&gt;&lt;b style=&quot;&quot;&gt;JIT&lt;/b&gt;&lt;/font&gt;" style="rounded=1;whiteSpace=wrap;html=1;arcSize=50;strokeColor=#475f75;fillColor=default;strokeWidth=1.5;" vertex="1" parent="1">
          <mxGeometry x="616.5" y="323" width="57" height="16" as="geometry" />
        </mxCell>
        <mxCell id="LPwq_dugz1kxxd8D_Qa9-74" style="edgeStyle=orthogonalEdgeStyle;rounded=0;orthogonalLoop=1;jettySize=auto;html=1;" edge="1" parent="1">
          <mxGeometry relative="1" as="geometry">
            <mxPoint x="644.41" y="314" as="sourcePoint" />
            <mxPoint x="644.41" y="271" as="targetPoint" />
            <Array as="points">
              <mxPoint x="644.41" y="270" />
            </Array>
          </mxGeometry>
        </mxCell>
        <mxCell id="LPwq_dugz1kxxd8D_Qa9-76" style="edgeStyle=orthogonalEdgeStyle;rounded=0;orthogonalLoop=1;jettySize=auto;html=1;" edge="1" parent="1">
          <mxGeometry relative="1" as="geometry">
            <mxPoint x="644.41" y="390" as="sourcePoint" />
            <mxPoint x="644.41" y="347" as="targetPoint" />
            <Array as="points">
              <mxPoint x="644.41" y="346" />
            </Array>
          </mxGeometry>
        </mxCell>
        <mxCell id="LPwq_dugz1kxxd8D_Qa9-78" value="&lt;div style=&quot;&quot;&gt;&lt;span style=&quot;font-family: arial; font-size: x-small; background-color: initial;&quot;&gt;&lt;font&gt;Manual UUID Attribute&amp;nbsp;&lt;/font&gt;&lt;/span&gt;&lt;/div&gt;&lt;div style=&quot;&quot;&gt;&lt;span style=&quot;font-family: arial; font-size: x-small; background-color: initial;&quot;&gt;&lt;font&gt;Provisioning&lt;/font&gt;&lt;/span&gt;&lt;/div&gt;" style="text;html=1;align=left;verticalAlign=middle;resizable=0;points=[];autosize=1;strokeColor=none;fillColor=none;fontSize=12;fontColor=#556B82;fontFamily=Helvetica;" vertex="1" parent="1">
          <mxGeometry x="700" y="55" width="130" height="40" as="geometry" />
        </mxCell>
        <mxCell id="LPwq_dugz1kxxd8D_Qa9-79" value="&lt;div style=&quot;&quot;&gt;&lt;font size=&quot;1&quot; face=&quot;arial&quot;&gt;Just In Time&lt;/font&gt;&lt;/div&gt;&lt;div style=&quot;&quot;&gt;&lt;font size=&quot;1&quot; face=&quot;arial&quot;&gt;Provisioning&lt;/font&gt;&lt;/div&gt;" style="text;html=1;align=left;verticalAlign=middle;resizable=0;points=[];autosize=1;strokeColor=none;fillColor=none;fontSize=12;fontColor=#556B82;fontFamily=Helvetica;" vertex="1" parent="1">
          <mxGeometry x="580" y="280" width="80" height="40" as="geometry" />
        </mxCell>
        <mxCell id="LPwq_dugz1kxxd8D_Qa9-80" value="" style="endArrow=blockThin;html=1;strokeColor=#07838F;bendable=1;rounded=0;endFill=1;endSize=4;edgeStyle=entityRelationEdgeStyle;startArrow=blockThin;startFill=1;startSize=4;jumpStyle=none;jumpSize=0;targetPerimeterSpacing=15;strokeWidth=1.5;" edge="1" parent="1">
          <mxGeometry width="50" height="50" relative="1" as="geometry">
            <mxPoint x="54.5" y="236.90999999999997" as="sourcePoint" />
            <mxPoint x="174.5" y="236.90999999999997" as="targetPoint" />
            <Array as="points">
              <mxPoint x="163.13" y="226.90999999999997" />
              <mxPoint x="114.5" y="227" />
            </Array>
          </mxGeometry>
        </mxCell>
        <mxCell id="LPwq_dugz1kxxd8D_Qa9-81" value="&lt;font size=&quot;1&quot; color=&quot;#475f75&quot;&gt;&lt;b style=&quot;&quot;&gt;SAML&lt;/b&gt;&lt;/font&gt;" style="rounded=1;whiteSpace=wrap;html=1;arcSize=50;strokeColor=#475f75;fillColor=default;strokeWidth=1.5;" vertex="1" parent="1">
          <mxGeometry x="84.5" y="229.5" width="57" height="16" as="geometry" />
        </mxCell>
        <mxCell id="LPwq_dugz1kxxd8D_Qa9-82" value="&lt;font face=&quot;arial&quot; size=&quot;1&quot; color=&quot;#1d2d3e&quot;&gt;&lt;b style=&quot;font-size: 14px;&quot;&gt;User&lt;/b&gt;&lt;/font&gt;" style="text;html=1;align=center;verticalAlign=middle;resizable=0;points=[];autosize=1;strokeColor=none;fillColor=none;fontSize=12;fontColor=default;fontFamily=Helvetica;" vertex="1" parent="1">
          <mxGeometry x="7.25" y="261.5" width="50" height="30" as="geometry" />
        </mxCell>
      </root>
    </mxGraphModel>
  </diagram>
</mxfile>
